<svg width="25" height="25" viewBox="0 0 25 25" fill="none" xmlns="http://www.w3.org/2000/svg">
<path d="M12.5 9.72223C12.1065 9.72223 11.7768 9.85556 11.5111 10.1222C11.2454 10.3889 11.112 10.7185 11.1111 11.1111V15.5556L9.86111 14.3056C9.60648 14.0509 9.2824 13.9236 8.88888 13.9236C8.49537 13.9236 8.17129 14.0509 7.91666 14.3056C7.66203 14.5602 7.53472 14.8843 7.53472 15.2778C7.53472 15.6713 7.66203 15.9954 7.91666 16.25L11.5278 19.8611C11.8055 20.1389 12.1296 20.2778 12.5 20.2778C12.8704 20.2778 13.1944 20.1389 13.4722 19.8611L17.0833 16.25C17.338 15.9954 17.4653 15.6713 17.4653 15.2778C17.4653 14.8843 17.338 14.5602 17.0833 14.3056C16.8287 14.0509 16.5046 13.9236 16.1111 13.9236C15.7176 13.9236 15.3935 14.0509 15.1389 14.3056L13.8889 15.5556V11.1111C13.8889 10.7176 13.7555 10.388 13.4889 10.1222C13.2222 9.85649 12.8926 9.72315 12.5 9.72223ZM2.77778 6.94445V22.2222H22.2222V6.94445H2.77778ZM2.77778 25C2.01389 25 1.36018 24.7282 0.816666 24.1847C0.273148 23.6412 0.000925925 22.987 0 22.2222V4.89584C0 4.57176 0.0523147 4.25926 0.156944 3.95834C0.261574 3.65741 0.417592 3.37964 0.625 3.12501L2.36111 1.00695C2.61574 0.682877 2.93379 0.433804 3.31528 0.25973C3.69676 0.0856555 4.09629 -0.000918577 4.51389 7.34861e-06H20.4861C20.9028 7.34861e-06 21.3023 0.0870443 21.6847 0.261118C22.0671 0.435192 22.3852 0.683803 22.6389 1.00695L24.375 3.12501C24.5833 3.37964 24.7398 3.65741 24.8444 3.95834C24.9491 4.25926 25.0009 4.57176 25 4.89584V22.2222C25 22.9861 24.7282 23.6403 24.1847 24.1847C23.6412 24.7292 22.987 25.0009 22.2222 25H2.77778ZM3.33333 4.16667H21.6667L20.4861 2.77778H4.51389L3.33333 4.16667Z" fill="black"/>
</svg>
