<svg width="21" height="16" viewBox="0 0 21 16" fill="none" xmlns="http://www.w3.org/2000/svg">
<path d="M2.5 16C1.95 16 1.47933 15.8043 1.088 15.413C0.696667 15.0217 0.500667 14.5507 0.5 14V2C0.5 1.45 0.696 0.979333 1.088 0.588C1.48 0.196666 1.95067 0.000666667 2.5 0H18.5C19.05 0 19.521 0.196 19.913 0.588C20.305 0.98 20.5007 1.45067 20.5 2V14C20.5 14.55 20.3043 15.021 19.913 15.413C19.5217 15.805 19.0507 16.0007 18.5 16H2.5ZM18.5 4L11.025 8.675C10.9417 8.725 10.8543 8.76267 10.763 8.788C10.6717 8.81333 10.584 8.82567 10.5 8.825C10.416 8.82433 10.3287 8.812 10.238 8.788C10.1473 8.764 10.0597 8.72633 9.975 8.675L2.5 4V14H18.5V4ZM10.5 7L18.5 2H2.5L10.5 7ZM2.5 4.25V2.775V2.8V2.788V4.25Z" fill="black"/>
</svg>
