<svg width="24" height="17" viewBox="0 0 24 17" fill="none" xmlns="http://www.w3.org/2000/svg">
<path d="M8.44494 13.1015L20.7764 0.770009C21.0674 0.479001 21.4069 0.333496 21.795 0.333496C22.183 0.333496 22.5225 0.479001 22.8135 0.770009C23.1045 1.06102 23.25 1.40683 23.25 1.80745C23.25 2.20808 23.1045 2.55341 22.8135 2.84345L9.46347 16.2298C9.17246 16.5208 8.83295 16.6664 8.44494 16.6664C8.05693 16.6664 7.71742 16.5208 7.42641 16.2298L1.16972 9.97316C0.878716 9.68215 0.739031 9.33682 0.750672 8.93717C0.762312 8.53751 0.914121 8.1917 1.2061 7.89972C1.49808 7.60774 1.84389 7.46224 2.24355 7.46321C2.6432 7.46418 2.98853 7.60968 3.27954 7.89972L8.44494 13.1015Z" fill="#6C8ED0"/>
</svg>
